<svg id="visual" viewBox="0 0 900 600" width="900" height="600" xmlns="http://www.w3.org/2000/svg" xmlns:xlink="http://www.w3.org/1999/xlink" version="1.1"><rect x="0" y="0" width="900" height="600" fill="#62c1e7"></rect><path d="M0 411L129 392L257 433L386 376L514 413L643 421L771 371L900 353L900 601L771 601L643 601L514 601L386 601L257 601L129 601L0 601Z" fill="#eba877"></path><path d="M0 402L129 446L257 476L386 466L514 432L643 429L771 406L900 463L900 601L771 601L643 601L514 601L386 601L257 601L129 601L0 601Z" fill="#db8e60"></path><path d="M0 489L129 440L257 480L386 489L514 507L643 501L771 497L900 453L900 601L771 601L643 601L514 601L386 601L257 601L129 601L0 601Z" fill="#cb734b"></path><path d="M0 503L129 493L257 530L386 481L514 517L643 542L771 507L900 517L900 601L771 601L643 601L514 601L386 601L257 601L129 601L0 601Z" fill="#ba5838"></path><path d="M0 565L129 573L257 535L386 555L514 566L643 543L771 533L900 561L900 601L771 601L643 601L514 601L386 601L257 601L129 601L0 601Z" fill="#a93c28"></path></svg>