<svg id="visual" viewBox="0 0 900 200" width="900" height="200" xmlns="http://www.w3.org/2000/svg" xmlns:xlink="http://www.w3.org/1999/xlink" version="1.1"><path d="M0 124L129 116L257 133L386 110L514 124L643 128L771 108L900 101L900 201L771 201L643 201L514 201L386 201L257 201L129 201L0 201Z" fill="#eba877"></path><path d="M0 120L129 138L257 150L386 146L514 132L643 131L771 122L900 145L900 201L771 201L643 201L514 201L386 201L257 201L129 201L0 201Z" fill="#db8e60"></path><path d="M0 155L129 135L257 151L386 155L514 162L643 160L771 158L900 141L900 201L771 201L643 201L514 201L386 201L257 201L129 201L0 201Z" fill="#cb734b"></path><path d="M0 161L129 157L257 171L386 152L514 166L643 176L771 162L900 166L900 201L771 201L643 201L514 201L386 201L257 201L129 201L0 201Z" fill="#ba5838"></path><path d="M0 186L129 189L257 173L386 181L514 186L643 177L771 173L900 184L900 201L771 201L643 201L514 201L386 201L257 201L129 201L0 201Z" fill="#a93c28"></path></svg>